<svg xmlns="http://www.w3.org/2000/svg" viewBox="0 0 100 100" width="100%" height="100%">
  <!-- Crimson Wax Seal (irregular stylized circular shape) -->
  <path d="M50 8 
           C65 7, 85 15, 88 35 
           C90 55, 93 80, 72 88 
           C50 94, 15 90, 10 70 
           C6 50, 10 20, 50 8 Z" 
        fill="#8b0000" stroke="#5a0000" stroke-width="3"/>
  
  <!-- Inner circular border -->
  <circle cx="50" cy="50" r="32" fill="none" stroke="#5a0000" stroke-width="2" stroke-dasharray="4,4"/>
  
  <!-- Minimalist Black Skull Motif -->
  <path d="M50 30 
           C42 30, 35 36, 35 46 
           C35 52, 38 58, 42 60 
           L42 68 C42 70, 44 72, 46 72 
           L54 72 C56 72, 58 70, 58 68 
           L58 60 
           C62 58, 65 52, 65 46 
           C65 36, 58 30, 50 30 Z" 
        fill="#050508"/>
  <!-- Skull Eyes -->
  <circle cx="44" cy="46" r="3.5" fill="#8b0000"/>
  <circle cx="56" cy="46" r="3.5" fill="#8b0000"/>
  <!-- Skull Nose -->
  <path d="M50 51 L48 55 L52 55 Z" fill="#8b0000"/>
</svg>
